<svg width="18" height="18" viewBox="0 0 18 18" fill="none" xmlns="http://www.w3.org/2000/svg">
<path d="M8.96966 18C9.60666 18 10.2357 17.944 10.8568 17.832C11.4858 17.72 12.0909 17.548 12.6722 17.316L11.9197 15.18C11.012 15.548 10.0645 15.732 9.07716 15.732C7.77928 15.732 6.63667 15.48 5.64933 14.976C4.662 14.464 3.88566 13.724 3.32033 12.756C2.755 11.788 2.45242 10.624 2.41261 9.264C2.3728 7.856 2.61167 6.628 3.12923 5.58C3.64679 4.532 4.4072 3.72 5.41046 3.144C6.42169 2.56 7.64392 2.268 9.07716 2.268C9.76989 2.268 10.4945 2.368 11.2509 2.568C12.0073 2.768 12.716 3.108 13.3769 3.588C14.0377 4.068 14.5712 4.72 14.9773 5.544C15.3914 6.368 15.5904 7.404 15.5745 8.652C15.5665 9.396 15.4869 10.02 15.3356 10.524C15.1843 11.02 14.8021 11.268 14.189 11.268C13.7989 11.268 13.4963 11.128 13.2813 10.848C13.0663 10.56 12.9588 10.108 12.9588 9.492L12.9947 4.968H11.227V5.388C10.8846 5.156 10.4905 4.972 10.0446 4.836C9.60666 4.7 9.18465 4.632 8.77857 4.632C7.9664 4.632 7.22988 4.812 6.56899 5.172C5.90811 5.532 5.38259 6.044 4.99244 6.708C4.61024 7.372 4.41914 8.156 4.41914 9.06C4.41914 9.94 4.60228 10.712 4.96855 11.376C5.33482 12.04 5.84043 12.56 6.48539 12.936C7.13831 13.304 7.88677 13.488 8.73079 13.488C9.22446 13.488 9.71017 13.404 10.1879 13.236C10.6736 13.068 11.0956 12.78 11.4539 12.372C11.7565 12.764 12.1507 13.06 12.6364 13.26C13.13 13.46 13.6396 13.56 14.1651 13.56C15.5188 13.56 16.4902 13.132 17.0794 12.276C17.6766 11.412 17.9831 10.192 17.999 8.616C18.015 7.472 17.8318 6.384 17.4496 5.352C17.0754 4.32 16.5061 3.404 15.7417 2.604C14.9773 1.796 14.0218 1.16 12.8752 0.696C11.7286 0.232 10.3949 0 8.87411 0C7.67975 0 6.54511 0.196 5.47018 0.588C4.40322 0.972 3.45967 1.556 2.63954 2.34C1.81941 3.116 1.17446 4.088 0.704674 5.256C0.234891 6.416 0 7.776 0 9.336C0 10.584 0.214985 11.736 0.644956 12.792C1.08289 13.848 1.69998 14.764 2.49622 15.54C3.30042 16.324 4.24795 16.928 5.3388 17.352C6.43761 17.784 7.6479 18 8.96966 18ZM8.898 11.196C8.24508 11.196 7.73549 11.008 7.36922 10.632C7.01091 10.248 6.83175 9.724 6.83175 9.06C6.83175 8.404 7.00693 7.884 7.35727 7.5C7.71558 7.108 8.25703 6.912 8.98161 6.912C10.2237 6.912 10.8448 7.628 10.8448 9.06C10.8448 9.86 10.6537 10.416 10.2715 10.728C9.89729 11.04 9.43945 11.196 8.898 11.196Z" fill="black"/>
</svg>
