<svg id="Capa_1" enable-background="new 0 0 512 512" height="512" viewBox="0 0 512 512" width="512" xmlns="http://www.w3.org/2000/svg"><path d="m288.134 319.2c88.291 0 159.6-71.458 159.6-159.6 0-88.004-71.596-159.6-159.6-159.6h-160.667c-8.284 0-15 6.716-15 15v209.933h-33.2c-8.284 0-15 6.716-15 15v64.267c0 8.284 6.716 15 15 15h33.2v34.267h-33.2c-8.284 0-15 6.716-15 15v64.267c0 8.284 6.716 15 15 15h33.2v49.266c0 8.284 6.716 15 15 15h64.267c8.284 0 15-6.716 15-15v-49.267h97.466c8.284 0 15-6.716 15-15v-64.267c0-8.284-6.716-15-15-15h-97.467v-34.266zm-81.401-224.933h81.4c36.024 0 65.333 29.309 65.333 65.333s-29.309 65.333-65.333 65.333h-81.4z"/></svg>