<svg width="13" height="12" viewBox="0 0 13 12" fill="none" xmlns="http://www.w3.org/2000/svg">
<path d="M13 4.58362L8.50861 3.95013L6.5 0L4.49139 3.95013L0 4.58362L3.25 7.65839L2.48279 12L6.5 9.95013L10.5172 12L9.75 7.65839L13 4.58362ZM8.37549 6.20551L7.59308 6.94574L7.78052 8.00641L7.84888 8.39313L7.40906 8.1687L6.5 7.70483L5.591 8.1687L5.15118 8.39313L5.21948 8.00641L5.40692 6.94574L4.62451 6.20551L4.39056 5.98419L4.77069 5.93054L5.80206 5.7851L6.27417 4.85669L6.5 4.41254L6.72589 4.85669L7.19794 5.7851L8.22931 5.93054L8.6095 5.98419L8.37549 6.20551Z" fill="black"/>
</svg>
