<svg width="18" height="16" viewBox="0 0 18 16" fill="none" xmlns="http://www.w3.org/2000/svg">
<path d="M16.7847 0.105794L0.840303 6.62341C-0.24793 7.08615 -0.241476 7.72942 0.641948 8.01626L4.61854 9.33167L6.14007 14.2756C6.32505 14.8167 6.23386 15.0313 6.77002 15.0313C7.18378 15.0313 7.36733 14.8314 7.59778 14.5928C7.74433 14.4408 8.61443 13.5443 9.58596 12.5432L13.7224 15.7821C14.4835 16.2272 15.0331 15.9966 15.2226 15.0329L17.9379 1.47247C18.2159 0.29129 17.513 -0.244488 16.7847 0.105794ZM5.24262 9.02945L14.2059 3.03625C14.6533 2.74866 15.0636 2.90328 14.7267 3.22018L7.05186 10.559L6.75302 13.937L5.24262 9.02945Z" fill="black"/>
</svg>
