<?xml version="1.0" encoding="iso-8859-1"?>
<!-- Generator: Adobe Illustrator 19.0.0, SVG Export Plug-In . SVG Version: 6.00 Build 0)  -->
<svg version="1.1" id="Layer_1" xmlns="http://www.w3.org/2000/svg" xmlns:xlink="http://www.w3.org/1999/xlink" x="0px" y="0px"
	 viewBox="0 0 512 512" style="enable-background:new 0 0 512 512;" xml:space="preserve">
<g>
	<g>
		<path d="M272.696,306.087V422.46c8.388-6.029,16.485-16.391,23.464-30.349c11.623-23.247,18.759-53.333,20.578-86.024H272.696z"/>
	</g>
</g>
<g>
	<g>
		<path d="M296.16,186.672c-6.979-13.959-15.076-24.319-23.464-30.349v116.373h44.042
			C314.918,240.003,307.783,209.919,296.16,186.672z"/>
	</g>
</g>
<g>
	<g>
		<path d="M185.974,407.043c-13.839-27.678-22.246-63.038-24.16-100.956h-43.938c5.393,44.883,32.236,83.259,69.954,104.549
			C187.203,409.456,186.583,408.261,185.974,407.043z"/>
	</g>
</g>
<g>
	<g>
		<path d="M215.84,186.672c-11.623,23.247-18.759,53.333-20.578,86.024h44.042V156.323
			C230.916,162.352,222.819,172.713,215.84,186.672z"/>
	</g>
</g>
<g>
	<g>
		<rect x="439.652" width="72.348" height="50.087"/>
	</g>
</g>
<g>
	<g>
		<path d="M195.262,306.087c1.82,32.692,8.954,62.777,20.578,86.024c6.979,13.959,15.076,24.319,23.464,30.349V306.087H195.262z"/>
	</g>
</g>
<g>
	<g>
		<path d="M0,83.478V512h512V83.478H0z M256,461.913c-95.128,0-172.522-77.392-172.522-172.522S160.872,116.87,256,116.87
			s172.522,77.392,172.522,172.522S351.128,461.913,256,461.913z"/>
	</g>
</g>
<g>
	<g>
		<rect width="406.261" height="50.087"/>
	</g>
</g>
<g>
	<g>
		<path d="M117.874,272.696h43.94c1.913-37.918,10.321-73.278,24.16-100.956c0.609-1.218,1.229-2.413,1.854-3.593
			C150.109,189.437,123.266,227.812,117.874,272.696z"/>
	</g>
</g>
<g>
	<g>
		<path d="M324.171,168.146c0.627,1.18,1.247,2.375,1.855,3.593c13.839,27.678,22.246,63.038,24.16,100.956h43.939
			C388.732,227.812,361.888,189.437,324.171,168.146z"/>
	</g>
</g>
<g>
	<g>
		<path d="M350.187,306.087c-1.913,37.918-10.321,73.278-24.16,100.956c-0.609,1.218-1.229,2.413-1.854,3.593
			c37.718-21.29,64.561-59.666,69.954-104.549H350.187z"/>
	</g>
</g>
<g>
</g>
<g>
</g>
<g>
</g>
<g>
</g>
<g>
</g>
<g>
</g>
<g>
</g>
<g>
</g>
<g>
</g>
<g>
</g>
<g>
</g>
<g>
</g>
<g>
</g>
<g>
</g>
<g>
</g>
</svg>
