<svg width="18" height="19" viewBox="0 0 18 19" fill="none" xmlns="http://www.w3.org/2000/svg">
<path d="M15.968 1.85186C15.4964 1.41748 13.5902 0.0324408 9.34468 0.0136639C9.34468 0.0136639 4.33855 -0.28881 1.898 1.9525C0.539622 3.31256 0.0616352 5.30203 0.0110409 7.77023C-0.0389694 10.2384 -0.10468 14.8621 4.34843 16.1164L4.35252 16.1175L4.35019 18.0308C4.35019 18.0308 4.32228 18.8058 4.83109 18.9632C5.44748 19.1548 5.80917 18.5658 6.39765 17.9313C6.72096 17.5833 7.16639 17.0716 7.50249 16.6804C10.5484 16.9357 12.8907 16.35 13.1564 16.2636C13.7716 16.0635 17.2513 15.6177 17.8171 10.9941C18.401 6.22652 17.5339 3.21192 15.968 1.85186ZM16.4942 10.6495C16.0156 14.5107 13.1942 14.7546 12.6744 14.9218C12.4528 14.9928 10.3949 15.5051 7.80836 15.3357L5.00438 18.3742L5.00146 14.8729L4.97937 14.8672C1.21243 13.8199 1.33918 9.89327 1.38163 7.83217C1.42408 5.77108 1.81078 4.08241 2.9604 2.94696C5.02414 1.0752 9.27664 1.35495 9.27664 1.35495C12.868 1.37087 14.5892 2.45285 14.9881 2.81561C16.3128 3.95165 16.9879 6.66888 16.4942 10.6495ZM13.4013 12.1466L13.3995 12.1534C13.21 12.4894 12.9559 12.8033 12.6349 13.0967L12.6279 13.1018C12.2092 13.4515 11.801 13.5617 11.4073 13.4338C9.89193 12.8357 8.35444 11.972 6.93326 10.5301C5.49638 9.07 4.53283 7.4302 4.0339 5.89222L3.98331 5.66763C3.8862 5.10928 4.24267 4.73515 5.22656 4.08411L5.244 4.07162C5.58651 3.8658 5.9261 3.96758 6.14534 4.14609C6.34828 4.28713 6.91931 5.02628 6.91931 5.02628C7.03154 5.19344 7.81656 6.14067 7.63571 6.59496C7.57408 6.85652 7.1141 7.13113 6.8658 7.35688L6.84604 7.3728C6.74078 7.54448 6.69775 7.66105 6.73264 7.91293L6.74196 7.95332C6.87104 8.56625 7.23274 9.15586 7.83051 9.72044C8.42133 10.2799 8.99874 10.612 9.54187 10.745C9.61804 10.7604 9.90822 10.7996 10.0966 10.5654L10.4641 10.1031C10.6409 9.87338 11.0695 9.72669 11.4887 9.96038C11.7225 10.0923 12.1406 10.3516 12.4028 10.5443C12.6808 10.749 13.2501 11.2238 13.2519 11.2255C13.5234 11.4546 13.5856 11.7912 13.4013 12.1466ZM9.59314 6.2792C10.0351 6.30307 10.3788 6.43953 10.616 6.68457C10.8521 6.92905 10.9835 7.2833 11.0062 7.73872C11.0091 7.80125 10.9608 7.85414 10.8986 7.85754H10.8928C10.8329 7.85754 10.7829 7.81038 10.78 7.7501C10.7602 7.35153 10.6503 7.04621 10.4532 6.84209C10.2572 6.63966 9.96355 6.52653 9.58094 6.50605C9.51871 6.50262 9.47045 6.44918 9.47394 6.38664C9.47742 6.32411 9.53034 6.27635 9.59314 6.2792ZM11.9005 8.11778C11.918 7.35247 11.6895 6.70542 11.2208 6.19373C10.9876 5.93842 10.7044 5.73658 10.3782 5.59388C10.0514 5.45115 9.67048 5.36303 9.24715 5.33176C9.18493 5.32718 9.13784 5.27263 9.14249 5.21065C9.14714 5.14812 9.20122 5.10092 9.26344 5.10546C10.1671 5.17199 10.8818 5.4864 11.3882 6.04075C11.897 6.59629 12.1459 7.29733 12.1273 8.12291C12.1256 8.18486 12.075 8.23376 12.0139 8.23376H12.011C11.9488 8.23206 11.8994 8.18031 11.9005 8.11778ZM8.75708 4.08339C8.75767 4.02085 8.80824 3.97081 8.87047 3.97081H8.87104C10.1114 3.9799 11.1633 4.39724 11.9989 5.21201C12.4182 5.6214 12.738 6.11207 12.9497 6.671C13.1602 7.2265 13.2695 7.86556 13.2753 8.56889C13.2759 8.63146 13.2253 8.68261 13.1631 8.68316H13.1619C13.0997 8.68316 13.0491 8.63315 13.0486 8.57058C13.0433 7.89401 12.9392 7.2822 12.738 6.75116C12.538 6.22409 12.2362 5.7607 11.8408 5.37407C11.4448 4.988 10.9947 4.69347 10.5027 4.49844C10.0096 4.30285 9.4601 4.20165 8.8693 4.19767C8.80708 4.19711 8.75649 4.14592 8.75708 4.08339Z" fill="black"/>
</svg>
