<svg width="20" height="20" viewBox="0 0 20 20" fill="none" xmlns="http://www.w3.org/2000/svg">
<path fill-rule="evenodd" clip-rule="evenodd" d="M10.0004 0C4.47694 0 0 4.4773 0 10.0004C0 11.8894 0.523674 13.6569 1.43441 15.164L0 20L5.16643 18.7557C6.59885 19.5486 8.2466 20 10.0004 20C15.523 20 20 15.5224 20 10.0004C20 4.4773 15.523 0 10.0004 0ZM9.97478 4.5567C10.0551 4.48266 10.1115 4.47232 10.39 4.48093C10.5353 4.4861 10.7488 4.50331 10.865 4.5171C11.4528 4.59113 11.9278 4.73407 12.449 4.99064C12.9616 5.24379 13.2897 5.48313 13.7237 5.9188C14.1304 6.33036 14.3559 6.64205 14.5951 7.12593C14.9283 7.80096 15.118 8.60343 15.1505 9.4868C15.1624 9.78814 15.1539 9.85532 15.0855 9.94141C14.9557 10.1085 14.6703 10.0809 14.5729 9.8932C14.5422 9.83119 14.5336 9.77784 14.5234 9.53674C14.5063 9.1665 14.4807 8.92715 14.4294 8.64129C14.2278 7.52029 13.6947 6.62484 12.8437 5.98251C12.1346 5.44526 11.4015 5.18351 10.4413 5.12669C10.1166 5.10774 10.0602 5.0957 9.98676 5.03886C9.85003 4.93037 9.84323 4.67553 9.97478 4.5567ZM12.0116 6.77464C11.6681 6.56801 11.1607 6.41474 10.6976 6.37687C10.5301 6.36307 10.4379 6.32863 10.3746 6.25459C10.2772 6.14265 10.267 5.99113 10.349 5.86543C10.4379 5.72595 10.5745 5.70355 10.9829 5.76554C12.0201 5.9188 12.8232 6.40442 13.3495 7.19311C13.6451 7.63738 13.8297 8.15914 13.8929 8.71879C13.9151 8.9237 13.9151 9.29739 13.8912 9.35938C13.8689 9.41792 13.7972 9.49715 13.7356 9.52985C13.669 9.56429 13.5272 9.56086 13.4486 9.51952C13.317 9.45238 13.2777 9.34559 13.2777 9.05629C13.2777 8.61032 13.1632 8.14021 12.9651 7.77512C12.7395 7.35841 12.4114 7.014 12.0116 6.77464ZM12.5891 9.07008C12.4883 9.16306 12.3021 9.1665 12.1893 9.07869C12.1073 9.01669 12.0816 8.95127 12.0628 8.77388C12.0406 8.53798 11.9996 8.37267 11.9296 8.2194C11.7792 7.89394 11.5144 7.72517 11.0667 7.67007C10.8565 7.64423 10.7933 7.62015 10.7249 7.53921C10.6002 7.38941 10.648 7.14659 10.8206 7.05705C10.8856 7.02434 10.9129 7.02089 11.0564 7.02949C11.1453 7.03466 11.2768 7.05014 11.3469 7.06565C11.6835 7.13799 11.9415 7.26714 12.1619 7.47551C12.4456 7.74585 12.6011 8.07303 12.6694 8.54314C12.7156 8.84966 12.6968 8.97019 12.5891 9.07008ZM15.1419 13.5938C15.0155 13.9227 14.5234 14.5392 14.1799 14.8027C13.8689 15.0403 13.6485 15.1315 13.358 15.1453C13.1188 15.1574 13.0197 15.1367 12.7139 15.0093C10.3148 14.0122 8.39937 12.5244 6.87862 10.4804C6.08407 9.41277 5.47919 8.30551 5.06565 7.15693C4.82474 6.48708 4.81279 6.19606 5.01098 5.85339C5.09644 5.70874 5.46038 5.35056 5.72522 5.15081C6.1661 4.82018 6.36941 4.69791 6.53173 4.66349C6.64282 4.63937 6.83588 4.6583 6.95893 4.70308C7.01875 4.72373 7.11101 4.77194 7.16399 4.80638C7.48861 5.02337 8.39253 6.18915 8.68815 6.7712C8.85729 7.10353 8.91369 7.3498 8.86074 7.53232C8.80602 7.72863 8.7155 7.83195 8.31053 8.16088C8.14819 8.29345 7.99611 8.42949 7.97219 8.46565C7.91068 8.5552 7.8611 8.73085 7.8611 8.85482C7.86285 9.1424 8.04738 9.66418 8.29003 10.0654C8.47796 10.3771 8.81457 10.7766 9.14777 11.0831C9.53907 11.4447 9.88422 11.691 10.2738 11.8856C10.7745 12.137 11.0803 12.2007 11.3042 12.0957C11.3606 12.0698 11.4203 12.0354 11.4392 12.0199C11.4562 12.0044 11.5878 11.8425 11.7313 11.6634C12.0082 11.3121 12.0714 11.2553 12.261 11.1899C12.502 11.1072 12.748 11.1296 12.9958 11.257C13.1838 11.3552 13.5938 11.6118 13.8587 11.7977C14.2073 12.044 14.9522 12.657 15.0531 12.7793C15.2308 12.9997 15.2615 13.2821 15.1419 13.5938Z" fill="black"/>
</svg>
